<svg xmlns="http://www.w3.org/2000/svg" viewBox="0 0 512 512">
  <defs>
    <linearGradient id="grad" x1="0%" y1="0%" x2="100%" y2="100%">
      <stop offset="0%" style="stop-color:#1E6853;stop-opacity:1" />
      <stop offset="100%" style="stop-color:#C9A227;stop-opacity:1" />
    </linearGradient>
  </defs>
  <rect width="512" height="512" rx="108" fill="url(#grad)"/>
  <g fill="white">
    <!-- Headphones icon -->
    <path d="M256 128c-70.7 0-128 57.3-128 128v80c0 17.7 14.3 32 32 32h32c17.7 0 32-14.3 32-32v-48c0-17.7-14.3-32-32-32h-16v-0c0-44.2 35.8-80 80-80s80 35.8 80 80v0h-16c-17.7 0-32 14.3-32 32v48c0 17.7 14.3 32 32 32h32c17.7 0 32-14.3 32-32v-80c0-70.7-57.3-128-128-128z"/>
  </g>
</svg>
