<svg xmlns="http://www.w3.org/2000/svg" viewBox="0 0 32 32">
  <defs>
    <linearGradient id="grad" x1="0%" y1="0%" x2="100%" y2="100%">
      <stop offset="0%" style="stop-color:#1E6853;stop-opacity:1" />
      <stop offset="100%" style="stop-color:#C9A227;stop-opacity:1" />
    </linearGradient>
  </defs>
  <rect width="32" height="32" rx="6" fill="url(#grad)"/>
  <g fill="white" transform="translate(4, 4) scale(0.75)">
    <path d="M16 4c-6.6 0-12 5.4-12 12v6c0 1.1.9 2 2 2h2c1.1 0 2-.9 2-2v-4c0-1.1-.9-2-2-2h-1c0-5 4-9 9-9s9 4 9 9h-1c-1.1 0-2 .9-2 2v4c0 1.1.9 2 2 2h2c1.1 0 2-.9 2-2v-6c0-6.6-5.4-12-12-12z"/>
  </g>
</svg>
